<svg width="20" height="20" viewBox="0 0 20 20" fill="none" xmlns="http://www.w3.org/2000/svg">
<path fill-rule="evenodd" clip-rule="evenodd" d="M5.29279 7.29296C5.48031 7.10549 5.73462 7.00017 5.99979 7.00017C6.26495 7.00017 6.51926 7.10549 6.70679 7.29296L9.99979 10.586L13.2928 7.29296C13.385 7.19745 13.4954 7.12127 13.6174 7.06886C13.7394 7.01645 13.8706 6.98886 14.0034 6.98771C14.1362 6.98655 14.2678 7.01186 14.3907 7.06214C14.5136 7.11242 14.6253 7.18667 14.7192 7.28056C14.8131 7.37446 14.8873 7.48611 14.9376 7.60901C14.9879 7.7319 15.0132 7.86358 15.012 7.99636C15.0109 8.12914 14.9833 8.26036 14.9309 8.38236C14.8785 8.50437 14.8023 8.61471 14.7068 8.70696L10.7068 12.707C10.5193 12.8944 10.265 12.9997 9.99979 12.9997C9.73462 12.9997 9.48031 12.8944 9.29279 12.707L5.29279 8.70696C5.10532 8.51943 5 8.26512 5 7.99996C5 7.73479 5.10532 7.48049 5.29279 7.29296V7.29296Z" fill="white"/>
</svg>
