<svg width="24" height="24" viewBox="0 0 24 24" fill="none" xmlns="http://www.w3.org/2000/svg">
<path fill-rule="evenodd" clip-rule="evenodd" d="M9.353 2.93885C9.49145 3.07752 9.58611 3.2538 9.62522 3.44581C9.66433 3.63781 9.64618 3.83708 9.573 4.01885C8.98754 5.4739 8.8427 7.06895 9.15649 8.60565C9.47028 10.1424 10.2289 11.5529 11.3379 12.662C12.4469 13.771 13.8575 14.5296 15.3942 14.8434C16.9309 15.1572 18.526 15.0123 19.981 14.4269C20.1628 14.3538 20.362 14.3358 20.5539 14.375C20.7459 14.4142 20.9221 14.5089 21.0606 14.6474C21.1992 14.7859 21.2941 14.962 21.3334 15.1539C21.3728 15.3458 21.3549 15.545 21.282 15.7269C20.5375 17.5794 19.2557 19.1667 17.6016 20.2847C15.9474 21.4026 13.9965 21.9999 12 21.9999C6.477 21.9999 2 17.5229 2 11.9999C2 7.79285 4.598 4.19485 8.273 2.71785C8.45477 2.64468 8.65404 2.62652 8.84605 2.66563C9.03805 2.70474 9.21434 2.7994 9.353 2.93785V2.93885Z" fill="#A1A1A1"/>
</svg>
